<?xml version="1.0" encoding="UTF-8"?>
<!DOCTYPE svg PUBLIC "-//W3C//DTD SVG 1.1//EN" "http://www.w3.org/Graphics/SVG/1.1/DTD/svg11.dtd">
<!-- Creator: CorelDRAW 2020 (64-Bit) -->
<svg xmlns="http://www.w3.org/2000/svg" xml:space="preserve" width="35.1177mm" height="37.0548mm" version="1.1" style="shape-rendering:geometricPrecision; text-rendering:geometricPrecision; image-rendering:optimizeQuality; fill-rule:evenodd; clip-rule:evenodd"
viewBox="0 0 284.36 300.05"
 xmlns:xlink="http://www.w3.org/1999/xlink"
 xmlns:xodm="http://www.corel.com/coreldraw/odm/2003">
 <defs>
  <style type="text/css">
   <![CDATA[
    .str0 {stroke:#373435;stroke-width:8.1;stroke-miterlimit:22.9256}
    .fil0 {fill:none}
   ]]>
  </style>
 </defs>
 <g id="Layer_x0020_1">
  <metadata id="CorelCorpID_0Corel-Layer"/>
  <polygon class="fil0 str0" points="120.76,4.05 142.18,4.05 163.61,4.05 172.49,36.45 173.29,36.56 225.13,67.06 257.89,58.48 268.6,77.04 279.31,95.59 255.65,119.53 255.95,120.07 255.58,180.45 279.31,204.46 268.6,223.01 257.89,241.57 225.45,233.07 225.4,233.15 173.11,263.54 172.48,263.62 163.61,296 142.18,296 120.76,296 111.8,263.29 59.4,233.59 59.08,233.03 26.48,241.57 15.76,223.01 5.05,204.46 28.64,180.6 28.32,120.43 28.79,119.6 5.05,95.59 15.76,77.04 26.48,58.48 58.95,66.99 59.06,66.81 111.89,36.41 "/>
  <circle class="fil0 str0" cx="142.18" cy="150.03" r="73.29"/>
 </g>
</svg>
